<?xml version="1.0" encoding="UTF-8" standalone="no"?>
<!-- Generator: Adobe Illustrator 19.0.0, SVG Export Plug-In . SVG Version: 6.00 Build 0)  -->

<svg
   xmlns:dc="http://purl.org/dc/elements/1.1/"
   xmlns:cc="http://creativecommons.org/ns#"
   xmlns:rdf="http://www.w3.org/1999/02/22-rdf-syntax-ns#"
   xmlns:svg="http://www.w3.org/2000/svg"
   xmlns="http://www.w3.org/2000/svg"
   xmlns:sodipodi="http://sodipodi.sourceforge.net/DTD/sodipodi-0.dtd"
   xmlns:inkscape="http://www.inkscape.org/namespaces/inkscape"
   version="1.1"
   id="Layer_1"
   x="0px"
   y="0px"
   viewBox="0 0 24 24"
   xml:space="preserve"
   sodipodi:docname="checked.svg"
   width="24"
   height="24"
   inkscape:version="0.92.1 r15371"><metadata
     id="metadata39"><rdf:RDF><cc:Work
         rdf:about=""><dc:format>image/svg+xml</dc:format><dc:type
           rdf:resource="http://purl.org/dc/dcmitype/StillImage" /><dc:title></dc:title></cc:Work></rdf:RDF></metadata><defs
     id="defs37" /><sodipodi:namedview
     pagecolor="#ffffff"
     bordercolor="#666666"
     borderopacity="1"
     objecttolerance="10"
     gridtolerance="10"
     guidetolerance="10"
     inkscape:pageopacity="0"
     inkscape:pageshadow="2"
     inkscape:window-width="1920"
     inkscape:window-height="1017"
     id="namedview35"
     showgrid="false"
     inkscape:zoom="0.78223628"
     inkscape:cx="117.45905"
     inkscape:cy="250.11504"
     inkscape:window-x="-8"
     inkscape:window-y="-8"
     inkscape:window-maximized="1"
     inkscape:current-layer="Layer_1" /><path
     style="fill:#b3b3b3;stroke-width:0.05625009"
     d="M 12,0 C 5.372895,0 0,5.37267 0,12 0,18.62733 5.372895,24 12,24 18.62784,24 24,18.62733 24,12 24,5.37267 18.627615,0 12,0 Z M 9.798705,18.16416 4.51485,12.880545 6.275985,11.11941 l 3.52272,3.522495 7.92531,-7.925535 1.761135,1.761135 z"
     id="path2"
     inkscape:connector-curvature="0" /><g
     id="g4"
     transform="translate(0,-402.66699)" /><g
     id="g6"
     transform="translate(0,-402.66699)" /><g
     id="g8"
     transform="translate(0,-402.66699)" /><g
     id="g10"
     transform="translate(0,-402.66699)" /><g
     id="g12"
     transform="translate(0,-402.66699)" /><g
     id="g14"
     transform="translate(0,-402.66699)" /><g
     id="g16"
     transform="translate(0,-402.66699)" /><g
     id="g18"
     transform="translate(0,-402.66699)" /><g
     id="g20"
     transform="translate(0,-402.66699)" /><g
     id="g22"
     transform="translate(0,-402.66699)" /><g
     id="g24"
     transform="translate(0,-402.66699)" /><g
     id="g26"
     transform="translate(0,-402.66699)" /><g
     id="g28"
     transform="translate(0,-402.66699)" /><g
     id="g30"
     transform="translate(0,-402.66699)" /><g
     id="g32"
     transform="translate(0,-402.66699)" /></svg>